<svg xmlns="http://www.w3.org/2000/svg" width="1856" height="284" data-name="svg5"><g data-name="layer1"><path fill="#f2f0ef" d="M278.263 143.112c0 77.367-62.291 140.088-139.134 140.088S0 220.498 0 143.112 62.291 3.028 139.13 3.028s139.133 62.717 139.133 140.084m152.632 0c0 72.831-31.148 131.868-69.567 131.868s-69.567-59.056-69.567-131.868 31.148-131.868 69.566-131.868 69.567 59.055 69.567 131.868m62.429 0c0 65.253-10.956 118.148-24.468 118.148s-24.468-52.914-24.468-118.148S455.343 24.964 468.86 24.964s24.463 52.899 24.463 118.148M877.309 15.175l.387-.085v-3h-79.124l-73.47 172.677L651.633 12.09h-85.266v3l.383.085c14.442 3.26 21.774 8.121 21.774 25.653V246.08c0 17.533-7.36 22.394-21.803 25.654l-.382.085v3.01h57.85v-3l-.383-.086c-14.442-3.26-21.774-8.121-21.774-25.653V52.734l94.38 222.094h5.352L798.893 46.54v204.62c-1.238 13.846-8.504 18.122-21.581 21.075l-.387.09v2.976h100.771v-2.976l-.387-.09c-13.091-2.953-20.532-7.229-21.77-21.076l-.066-210.33h.066c0-17.533 7.332-22.394 21.77-25.654m46.03 135.968c1.648-36.878 14.89-63.496 37.114-63.954 6.856.113 12.605 2.362 17.075 6.69 9.496 9.217 13.96 28.479 13.27 57.264zm-.997 10.394h118.11v-.496c-.336-28.2-8.504-50.135-24.255-65.197-13.616-13.016-33.775-20.178-54.95-20.178h-.472c-10.99 0-24.468 2.665-34.059 7.493-10.918 5.055-20.546 12.614-28.559 22.535-12.897 15.983-20.711 37.583-22.61 61.857-.062.728-.114 1.455-.166 2.183s-.085 1.38-.118 2.074q-.251 5.12-.17 10.247c1.28 54.978 30.978 98.915 83.726 98.915 46.299 0 73.261-33.846 79.984-79.276l-3.397-1.195c-11.81 24.416-33.023 39.213-57.165 37.408-32.958-2.466-58.205-35.882-55.913-76.36m251.664 74.494c-3.874 9.189-11.957 14.244-22.79 14.244s-20.736-7.436-27.77-20.948c-7.56-14.504-11.537-35.008-11.537-59.296 0-50.551 15.722-83.249 40.058-83.249 10.19 0 18.212 5.055 22.04 13.876zm78.35 36.038c-14.443-3.416-21.775-8.504-21.775-26.93V0l-87.746 25.852v3.165l.538-.042c12.104-.978 20.315.694 25.082 5.098 3.732 3.448 5.551 8.74 5.551 16.185v33.61c-8.65-5.523-18.94-8.211-31.427-8.211-25.322 0-48.467 10.663-65.159 30.028-17.4 20.183-26.598 47.764-26.598 79.753-.008 57.132 28.12 95.532 69.978 95.532 24.487 0 44.187-13.417 53.206-36.047V275.3h78.733v-3.147zm75.255-238.739c0-17.84-13.45-31.294-31.295-31.294-17.759 0-31.653 13.748-31.653 31.294s13.908 31.295 31.653 31.295c17.844 0 31.295-13.455 31.295-31.295m20.712 238.739c-14.443-3.416-21.775-8.504-21.775-26.93h-.062V76.239l-78.736 22.606v3.071l.472.042c17.036 1.517 21.7 7.385 21.7 27.293V275.3h78.802v-3.146zm201.756 0c-14.443-3.416-21.775-8.504-21.775-26.93V76.239l-74.967 21.86v3.08l.444.047c13.927 1.465 17.953 7.668 17.953 27.666v106.772c-4.645 9.189-13.356 14.645-23.91 15.014-17.117 0-26.542-11.56-26.542-32.551V76.243l-78.737 22.606v3.066l.472.042c17.036 1.512 21.704 7.38 21.704 27.293v90.364c-.04 6.308.508 12.607 1.64 18.813l1.417 6.165c6.666 23.887 24.132 36.378 51.496 36.378 23.178 0 43.493-14.348 52.44-36.798v31.18h78.738v-3.146zm305.872 3.222v-3.151l-.383-.09c-15.67-3.614-21.775-10.427-21.775-24.298V132.865c0-35.826-20.12-57.208-53.825-57.208-24.567 0-45.283 14.197-53.258 36.311-6.335-23.433-24.567-36.311-51.524-36.311-23.68 0-42.237 12.496-50.197 33.604V76.252l-78.737 21.68v3.09l.472.043c16.833 1.492 21.7 7.53 21.7 26.929V275.3h73.464v-3.147l-.387-.094c-12.501-2.939-16.536-8.296-16.536-22.044V118.318c3.307-7.724 9.973-16.875 23.15-16.875 16.365 0 24.661 11.338 24.661 33.675v140.183h73.484v-3.147l-.388-.094c-12.5-2.939-16.535-8.296-16.535-22.044V132.85a76 76 0 0 0-1.04-13.077c3.506-8.395 10.555-18.33 24.27-18.33 16.597 0 24.661 11.012 24.661 33.675v140.183z" data-name="path857"/></g></svg>